# xmcd CD database file
#
# Track frame offsets:
#	150
#	21163
#	42089
#	60689
#	78470
#	98996
#	112754
#	137130
#	152949
#	174859
#	187900
#	201367
#	218467
#
# Disc length: 3429 seconds
#
# Revision: 0
# Processed by: cddbd v1.5.2PL0 Copyright (c) Steve Scherf et al.
# Submitted via: CDex 1.86
#
DISCID=a50d630d
DTITLE=LRBC - 29
DYEAR=2017
DGENRE=Blues
TTITLE0=Elvin Bishop - Keep On Rollin
TTITLE1=The California Honeydrops - Just Because
TTITLE2=Chubby Carrier - Zydeco Stuff
TTITLE3=Tommy Castro - Nonchalant
TTITLE4=Ruthie Foster - Joy Comes Back
TTITLE5=G Love and Special Sauce - Back to Boston
TTITLE6=Coco Montoya - The Moon is Full
TTITLE7=John Nementh - Feelin' Freaky
TTITLE8=Victor Wainwright - Genuine Southern Hospitality
TTITLE9=Reverend Billy C Wirtz w Nighthawks - Too Old
TTITLE10=Mitch Woods w Elvin Bishop - Saturday Night Boogie Woogie
TTITLE11=Randy Oxford - Full Moon Rising
TTITLE12=Marty Sammon - Nine Pound Steel
EXTD=YEAR: 2017
EXTT0=
EXTT1=
EXTT2=
EXTT3=
EXTT4=
EXTT5=
EXTT6=
EXTT7=
EXTT8=
EXTT9=
EXTT10=
EXTT11=
EXTT12=
PLAYORDER=
